<svg width="40" height="40" viewBox="0 0 40 40" fill="none" xmlns="http://www.w3.org/2000/svg">
<path d="M33.3676 17.833L28.7009 20.783L19.2676 11.3497L22.2009 6.68304C23.5676 4.53304 26.3009 4.43304 28.3176 6.43304L33.6176 11.733C35.5009 13.6164 35.3842 16.5497 33.3676 17.833Z" fill="black"/>
<path opacity="0.4" d="M24.5172 33.2505L10.0005 34.9671C9.0005 35.0838 8.1005 34.9338 7.3505 34.5671C6.53384 34.1671 5.9005 33.5338 5.5005 32.7171C5.13384 31.9671 5.0005 31.0671 5.1005 30.0838L6.83384 15.5504C7.2505 11.9171 8.6005 10.7338 12.4338 10.9505L19.3005 11.3671L28.7338 20.8005L29.1338 27.6671C29.4838 31.5005 28.1672 32.8338 24.5172 33.2505Z" fill="black"/>
<path d="M13.2986 28.5835L7.33193 34.5501C6.51527 34.1501 5.88193 33.5168 5.48193 32.7001L11.4653 26.7168C11.9819 26.2168 12.8153 26.2168 13.3153 26.7168C13.8319 27.2501 13.8319 28.0668 13.2986 28.5835Z" fill="black"/>
</svg>
