<svg width="40" height="40" viewBox="0 0 40 40" fill="none" xmlns="http://www.w3.org/2000/svg">
<path d="M34.7749 14.2197H21.9312C21.5997 14.2197 21.2817 14.3514 21.0473 14.5859C20.8128 14.8202 20.6812 15.1382 20.6812 15.4697V34.7322C20.6822 35.0634 20.8142 35.3808 21.0483 35.615C21.2826 35.8492 21.6 35.9812 21.9312 35.9822H34.7749C35.1061 35.9812 35.4235 35.8492 35.6577 35.615C35.8919 35.3808 36.0239 35.0634 36.0249 34.7322V15.4697C36.0249 15.1382 35.8932 14.8202 35.6588 14.5859C35.4243 14.3514 35.1064 14.2197 34.7749 14.2197Z" fill="#999999"/>
<path d="M34.7749 3.5166H21.9312C21.5997 3.5166 21.2817 3.6483 21.0473 3.88272C20.8128 4.11714 20.6812 4.43508 20.6812 4.7666V11.1853C20.6822 11.5166 20.8142 11.8339 21.0483 12.0681C21.2826 12.3023 21.6 12.4344 21.9312 12.4353H34.7749C35.1061 12.4344 35.4235 12.3023 35.6577 12.0681C35.8919 11.8339 36.0239 11.5166 36.0249 11.1853V4.7666C36.0249 4.43508 35.8932 4.11714 35.6588 3.88272C35.4243 3.6483 35.1064 3.5166 34.7749 3.5166Z" fill="black"/>
<path d="M17.65 22.7822H4.8125C4.12214 22.7822 3.5625 23.3419 3.5625 24.0322V34.7323C3.5625 35.4226 4.12214 35.9823 4.8125 35.9823H17.65C18.3404 35.9823 18.9 35.4226 18.9 34.7323V24.0322C18.9 23.3419 18.3404 22.7822 17.65 22.7822Z" fill="black"/>
<path d="M17.65 3.51661H4.81251C4.6482 3.51603 4.48538 3.54797 4.33346 3.61058C4.18155 3.6732 4.04352 3.76523 3.92733 3.88143C3.81114 3.99762 3.71908 4.13564 3.65646 4.28756C3.59385 4.43947 3.56193 4.60229 3.56251 4.76661V19.7229C3.56251 20.0544 3.69421 20.3723 3.92863 20.6068C4.16305 20.8411 4.48099 20.9729 4.81251 20.9729H17.65C17.9815 20.9729 18.2994 20.8411 18.5339 20.6068C18.7683 20.3723 18.9 20.0544 18.9 19.7229V4.76661C18.9006 4.60229 18.8686 4.43947 18.806 4.28756C18.7434 4.13564 18.6514 3.99762 18.5352 3.88143C18.419 3.76523 18.2809 3.6732 18.1291 3.61058C17.9771 3.54797 17.8143 3.51603 17.65 3.51661Z" fill="#999999"/>
</svg>
